<?xml version="1.0" standalone="no"?>
<!DOCTYPE svg PUBLIC "-//W3C//DTD SVG 20010904//EN"
 "http://www.w3.org/TR/2001/REC-SVG-20010904/DTD/svg10.dtd">
<svg version="1.0" xmlns="http://www.w3.org/2000/svg"
 width="512.000000pt" height="512.000000pt" viewBox="0 0 512.000000 512.000000"
 preserveAspectRatio="xMidYMid meet">
<metadata>
Created by potrace 1.16, written by Peter Selinger 2001-2019
</metadata>
<g transform="translate(0.000000,512.000000) scale(0.100000,-0.100000)"
fill="#000000" stroke="none">
<path d="M0 2560 l0 -2560 2560 0 2560 0 0 2560 0 2560 -2560 0 -2560 0 0
-2560z m2462 1928 c42 -42 46 -55 22 -65 -11 -4 -26 4 -43 24 -51 61 -140 68
-201 17 -43 -37 -67 -123 -51 -184 22 -82 96 -131 175 -116 47 9 92 55 99 102
4 21 5 39 4 40 -1 1 -26 -3 -55 -8 -62 -13 -102 0 -102 32 0 17 3 18 28 9 19
-8 43 -7 84 1 31 7 64 10 73 7 21 -9 19 -82 -4 -133 -28 -61 -72 -88 -151 -92
-62 -4 -68 -2 -110 30 -24 18 -53 48 -63 66 -28 47 -34 141 -13 196 22 57 83
113 133 121 21 4 42 8 48 9 28 7 92 -21 127 -56z m339 39 c109 -58 118 -207
17 -279 -47 -33 -139 -33 -187 1 -38 27 -70 90 -71 137 0 51 40 115 90 141 55
29 95 29 151 0z m201 -159 l3 -173 33 3 c18 2 73 -6 121 -17 86 -21 138 -19
194 4 13 6 17 2 17 -18 0 -49 -98 -59 -262 -26 -60 12 -71 11 -103 -4 -20 -9
-38 -17 -40 -17 -3 0 -5 95 -5 210 0 202 1 210 20 210 19 0 20 -8 22 -172z
m309 149 c50 -33 71 -80 66 -150 -6 -100 -62 -147 -174 -147 l-63 0 0 160 0
160 69 0 c54 0 75 -5 102 -23z m367 1 c3 -15 -8 -18 -90 -20 l-93 -3 -3 -47
-3 -47 73 -3 c60 -2 73 -6 76 -20 3 -16 -6 -18 -72 -18 l-76 0 0 -50 0 -50 95
0 c88 0 95 -1 95 -20 0 -19 -7 -20 -115 -20 -103 0 -115 2 -116 18 -3 78 -4
280 -1 290 3 9 32 12 116 10 95 -3 111 -5 114 -20z m197 -114 c50 -75 94 -145
99 -155 5 -11 12 -19 15 -19 3 0 6 69 6 152 0 151 0 153 23 156 l22 3 0 -210
0 -211 -23 0 c-17 0 -31 14 -56 58 -48 83 -165 262 -171 262 -3 0 -4 -72 -2
-160 l3 -160 -26 0 -25 0 0 210 0 210 23 0 c18 0 41 -27 112 -136z m-1264
-600 c0 -137 4 -213 9 -203 5 9 9 34 9 55 -2 91 -1 94 26 84 25 -9 35 -3 43
30 9 33 9 100 1 106 -5 3 -7 10 -3 15 3 5 10 7 15 4 22 -14 18 25 -5 48 -14
15 -26 30 -26 35 0 5 -11 15 -25 22 -14 7 -23 15 -21 18 3 2 21 -6 41 -18 l36
-22 49 21 c95 41 234 18 294 -48 16 -18 20 -18 57 -3 21 8 41 13 44 11 3 -4 8
-307 5 -376 0 -8 -15 -13 -39 -13 -22 0 -43 -4 -46 -10 -3 -5 -13 -10 -21 -10
-8 0 -32 -12 -54 -26 -72 -48 -208 -44 -282 7 -14 11 -41 19 -60 19 -59 0 -61
15 -59 324 0 88 3 157 6 154 3 -2 5 -103 6 -224z m864 194 c62 -33 105 -108
105 -185 0 -143 -167 -242 -295 -176 -50 26 -68 46 -94 103 -80 176 111 348
284 258z m-1125 11 c108 -24 170 -103 178 -223 9 -146 -47 -246 -154 -277 -27
-7 -89 -14 -139 -14 l-90 0 -3 263 -2 262 82 0 c46 0 103 -5 128 -11z m1547
-12 c92 -48 106 -177 27 -247 l-36 -31 20 -22 c11 -12 36 -54 55 -93 19 -38
42 -76 51 -83 22 -19 20 -41 -5 -41 -38 0 -59 21 -94 94 -45 96 -90 136 -150
136 l-44 0 -3 -107 c-3 -108 -3 -108 -28 -108 -23 0 -25 3 -25 48 1 26 2 144
3 263 l2 217 98 -5 c63 -3 108 -11 129 -21z m-2886 -205 c34 -29 30 -78 -9
-111 -29 -24 -32 -31 -32 -83 0 -47 4 -59 20 -68 28 -15 27 -66 -1 -81 -16 -8
-28 -8 -45 0 -31 14 -34 65 -4 81 17 9 20 21 20 74 0 57 -2 64 -25 74 -29 13
-48 53 -38 79 19 53 71 69 114 35z m-375 -127 c32 -34 34 -35 113 -35 l81 0 0
-43 c0 -30 6 -48 20 -60 35 -30 15 -87 -30 -87 -29 0 -54 43 -40 69 6 12 15
21 20 21 6 0 10 20 10 45 l0 45 -74 0 c-68 0 -75 -2 -90 -25 -35 -54 -103 -51
-126 5 -18 45 17 97 69 99 7 1 28 -15 47 -34z m-231 -150 c14 -13 25 -36 25
-50 0 -25 -31 -65 -51 -65 -6 0 -9 -21 -7 -52 l3 -53 64 -3 c55 -3 65 0 78 18
17 25 60 24 76 -1 14 -23 1 -66 -23 -72 -12 -3 -31 4 -47 16 -20 16 -43 22
-85 23 -32 1 -62 2 -68 3 -5 0 -10 26 -10 56 0 50 -2 56 -29 69 -49 26 -56 82
-15 115 35 27 59 26 89 -4z m1053 5 c38 -35 20 -120 -25 -120 -9 0 -13 -16
-13 -60 l0 -60 -73 0 c-66 0 -76 -3 -95 -25 -30 -34 -82 -15 -82 29 0 46 59
64 82 26 11 -17 24 -20 80 -20 l68 0 0 54 c0 45 -3 56 -19 61 -27 8 -44 55
-32 87 19 49 72 62 109 28z m-343 -450 l0 -335 -230 0 -230 0 -3 329 c-2 257
1 331 10 338 7 4 112 7 233 5 l220 -2 0 -335z m2914 314 c3 -2 7 -47 9 -98 l4
-94 -33 -8 c-19 -5 -149 -8 -289 -9 l-255 0 -2 -715 c-1 -393 -5 -873 -8
-1067 l-7 -352 -72 -6 c-39 -4 -83 -5 -96 -3 l-25 3 -7 180 c-4 99 -5 582 -1
1072 l6 893 -289 2 -289 3 0 95 c0 91 1 95 25 108 20 10 149 12 674 7 358 -3
652 -8 655 -11z m-1719 -9 c17 -9 30 -19 30 -23 0 -4 18 -25 40 -47 21 -22 39
-48 40 -58 0 -26 -118 -147 -143 -147 -25 0 -137 117 -137 143 0 19 115 147
132 147 5 0 22 -7 38 -15z m-1900 -187 c11 -12 20 -25 20 -30 0 -17 70 -8 90
12 37 37 80 20 80 -32 0 -45 -68 -64 -84 -23 -3 9 -19 15 -41 15 -28 0 -42 -7
-62 -30 -16 -19 -34 -30 -51 -30 -35 0 -72 37 -72 72 0 61 78 91 120 46z
m1050 2 c43 -43 11 -120 -50 -120 -21 0 -36 8 -52 30 -17 24 -29 30 -60 30
-21 0 -38 -4 -38 -10 0 -19 -41 -33 -67 -21 -20 9 -24 17 -21 43 2 26 9 35 32
43 24 8 31 6 46 -13 28 -34 80 -30 108 8 27 36 72 40 102 10z m-878 -152 c24
-20 28 -44 12 -67 -19 -27 -60 -27 -76 -1 -12 18 -24 20 -134 20 l-122 0 -4
-46 c-3 -40 0 -48 19 -57 12 -5 27 -23 34 -39 29 -72 -60 -127 -116 -72 -31
31 -8 114 32 114 9 0 13 16 13 60 l0 60 131 0 c116 0 134 2 156 20 30 23 34
24 55 8z m668 -8 c18 -18 33 -20 150 -20 l130 0 0 -54 c0 -47 3 -56 25 -70 36
-24 49 -55 36 -89 -14 -35 -55 -52 -92 -37 -55 23 -57 91 -4 126 20 13 25 24
25 60 l0 44 -128 0 c-118 0 -128 -2 -140 -21 -15 -24 -59 -23 -75 2 -14 22 -1
67 21 72 30 8 32 7 52 -13z m-796 -121 c14 -11 26 -27 26 -35 0 -21 23 -17 38
6 15 24 67 27 76 4 11 -29 6 -62 -10 -68 -29 -11 -53 -6 -68 15 -15 22 -15 22
-50 -16 -30 -31 -40 -36 -63 -31 -28 7 -62 41 -63 63 0 24 23 61 44 71 31 15
40 14 70 -9z m959 -11 c53 -62 -31 -149 -96 -98 -15 12 -27 28 -27 36 0 20
-14 17 -35 -6 -32 -36 -85 -20 -85 25 0 45 53 61 85 25 23 -25 28 -25 40 2 12
28 53 49 80 42 11 -3 28 -15 38 -26z m970 -163 c4 -38 5 -236 2 -440 -3 -203
-1 -555 4 -782 5 -227 6 -427 2 -445 l-7 -33 -81 -3 c-44 -2 -95 1 -113 5
l-33 9 4 444 c1 245 2 636 1 869 -1 301 2 429 10 438 8 10 36 13 107 11 l96
-3 8 -70z m-1549 -51 c21 -21 20 -40 -4 -64 -16 -16 -20 -33 -20 -83 0 -58 2
-65 25 -75 51 -24 40 -106 -18 -126 -35 -13 -81 19 -85 58 -4 31 22 76 43 76
12 0 15 15 15 68 0 56 -3 69 -20 80 -36 22 -15 82 30 82 10 0 26 -7 34 -16z
m151 -18 c8 -24 6 -31 -13 -46 -15 -13 -22 -29 -22 -54 l0 -36 76 0 c72 0 78
2 104 30 33 35 57 38 94 9 50 -40 21 -119 -44 -119 -29 0 -70 29 -70 50 0 5
-39 11 -87 12 l-88 3 -3 44 c-2 26 -10 50 -19 56 -19 14 -20 64 -2 76 27 18
63 5 74 -25z"/>
<path d="M2669 4485 c-29 -16 -59 -70 -59 -107 0 -34 36 -87 68 -99 74 -29
162 24 162 97 0 94 -91 152 -171 109z"/>
<path d="M3185 4488 c-3 -8 -4 -61 -3 -119 l3 -104 42 1 c56 1 90 25 103 74
14 51 -2 114 -33 135 -34 22 -105 31 -112 13z"/>
<path d="M2766 3934 c-24 -14 -27 -20 -22 -46 3 -17 6 -66 6 -110 0 -72 1 -78
16 -64 8 9 14 22 11 29 -6 16 11 47 25 47 9 0 9 -3 0 -12 -7 -7 -12 -18 -12
-26 0 -12 2 -12 17 -1 15 13 15 12 4 -9 -7 -13 -18 -25 -26 -28 -21 -9 -25
-29 -9 -60 l14 -29 -24 26 -23 27 4 -47 c6 -54 20 -68 80 -77 62 -9 109 1 154
32 l39 27 0 137 c0 152 -1 155 -73 185 -47 19 -143 19 -181 -1z"/>
<path d="M3314 3950 c-32 -13 -72 -67 -80 -106 -9 -50 20 -121 60 -145 51 -31
90 -34 138 -10 54 27 80 62 85 115 11 105 -103 187 -203 146z"/>
<path d="M2192 3754 l3 -209 65 0 c83 1 111 8 151 42 44 37 59 80 59 168 0 89
-21 140 -72 177 -27 19 -48 24 -121 27 l-87 3 2 -208z"/>
<path d="M3720 3865 l0 -105 55 0 c101 0 145 34 145 111 0 66 -49 99 -146 99
l-54 0 0 -105z"/>
</g>
</svg>
